# xmcd
#
# Track frame offsets:
#	150
#	14255
#	28190
#	41874
#	53287
#	65545
#	78561
#	90347
#	103618
#	114665
#	127267
#	140599
#	154118
#	167479
#	180235
#	192368
#	204966
#	218190
#
# Disc length: 3080 seconds
#
# Revision: 1
# Processed by: cddbd v1.4PL0 Copyright (c) Steve Scherf et al.
# Submitted via: audiograbber 1.81.02
#
DISCID=f20c0612
DTITLE=California Blues 1940-1948 - CD 2 - California Blues 1940-1948
DYEAR=1999
DGENRE=Blues
TTITLE0=TBone Walker - Plain Old Down Home Blues
TTITLE1=Saunders King  - S.K. Groove
TTITLE2=Lowell Fulson - Television Blues
TTITLE3=Clarence "Gatemouth" Brown - Gatemouth Boogie
TTITLE4=Pee Wee Crayton - Central Avebue Blues
TTITLE5=Gene Philips - Ramblin Woman
TTITLE6=Charles Brown - Soothe Me
TTITLE7=Jimmy Witherspoon - Please Stop Playing Those Blues
TTITLE8=Amos Milburn - I'm Gonna Leave You
TTITLE9=Floyd Dixon - Prairie Dog Hole
TTITLE10=Little Willie Liitlefield - Little Willie's Boogie
TTITLE11=Lloyd Glenn - That Other Woman's Gotta Go
TTITLE12=Percy Mayfield - Leary Blues
TTITLE13=Roy Milton - True Blues
TTITLE14=Jimmy Liggins - Troubles Goodbye
TTITLE15=Jesse Price - Jump It With A Shuffle
TTITLE16=Joe Lutcher - No Name Boogie
TTITLE17=Joe Pullum - I Came To California (My Woman)
EXTD=Frémeaux et Associés\nFA175
EXTT0=
EXTT1=
EXTT2=
EXTT3=
EXTT4=
EXTT5=
EXTT6=
EXTT7=
EXTT8=
EXTT9=
EXTT10=
EXTT11=
EXTT12=
EXTT13=
EXTT14=
EXTT15=
EXTT16=
EXTT17=
PLAYORDER=
